<?xml version="1.0" standalone="no"?>
<!DOCTYPE svg PUBLIC "-//W3C//DTD SVG 20010904//EN"
 "http://www.w3.org/TR/2001/REC-SVG-20010904/DTD/svg10.dtd">
<svg version="1.0" xmlns="http://www.w3.org/2000/svg"
 width="250.000000pt" height="250.000000pt" viewBox="0 0 250.000000 250.000000"
 preserveAspectRatio="xMidYMid meet">
<metadata>
Created by potrace 1.11, written by Peter Selinger 2001-2013
</metadata>
<g transform="translate(0.000000,250.000000) scale(0.100000,-0.100000)"
fill="#000000" stroke="none">
<path d="M0 1250 l0 -1250 1250 0 1250 0 0 1250 0 1250 -1250 0 -1250 0 0
-1250z m730 445 c0 -16 -5 -19 -52 -29 -18 -4 -28 -13 -28 -24 0 -18 158 -345
182 -375 13 -17 20 -7 85 110 111 200 144 271 131 279 -6 4 -25 10 -42 13 -18
4 -32 14 -34 24 -3 17 6 18 111 15 l115 -3 5 -40 c8 -56 53 -157 196 -444 70
-138 126 -240 131 -235 18 19 302 600 321 658 l20 61 110 0 c75 0 109 -4 109
-11 0 -7 -17 -15 -37 -19 -55 -10 -81 -30 -88 -69 -4 -18 -2 -188 3 -376 12
-384 12 -383 82 -395 22 -4 40 -12 40 -18 0 -9 -46 -12 -165 -12 -119 0 -165
3 -165 12 0 6 18 14 40 18 67 11 70 22 69 245 -1 107 -4 253 -8 323 l-6 128
-184 -370 c-101 -204 -187 -369 -191 -366 -4 3 -11 16 -14 30 -4 14 -67 157
-142 318 -184 398 -207 447 -214 447 -6 0 -79 -123 -177 -300 l-53 -95 0 -156
c0 -182 3 -190 76 -198 36 -4 50 -11 52 -23 3 -17 -11 -18 -181 -18 -149 0
-186 3 -190 14 -8 20 1 26 39 26 17 0 42 9 55 19 23 19 24 24 24 168 l0 148
-109 210 c-132 255 -144 273 -196 281 -30 5 -40 11 -40 25 0 18 10 19 160 19
137 0 160 -2 160 -15z"/>
</g>
</svg>
